<svg>
    <g fill="#687D77">
        <path d="M31.6,11.3v3.3h-1.9v-13H5.3v13H3.4v-3.3c-1.1,0-1.9,0.9-1.9,1.9v20.3h1.9v-17h1.9V23h24.4v-6.5h1.9v17h1.9V13.2   C33.5,12.1,32.6,11.3,31.6,11.3z M27.7,21H7.3V3.5h20.4C27.7,3.8,27.7,21.4,27.7,21z" fill="#687D77" style="fill: rgb(104, 125, 119);"></path>
        <path d="M26.7,4.5H8.3V20h18.4V4.5z M10.3,7.2H14v4.3h-3.7V7.2z M15.8,17.2h-5.6v-3.7h5.6V17.2z M20.5,17.2h-3.7v-4.3h3.7V17.2z    M20.7,11h-5.6V7.4h5.6V11z M24.8,17.2h-3.2V7.4h3.2V17.2z" fill="#687D77" style="fill: rgb(104, 125, 119);"></path>
        <circle cx="12" cy="8.3" r="0.3"></circle>
        <path d="M13,14.6c0.2,0,0.3-0.2,0.3-0.4c0-0.2-0.2-0.3-0.3-0.3c-0.2,0-0.3,0.2-0.3,0.3C12.6,14.4,12.8,14.6,13,14.6z" fill="#687D77" style="fill: rgb(104, 125, 119);"></path>
        <path d="M17.9,8.5c0.2,0,0.3-0.2,0.3-0.3c0-0.2-0.2-0.3-0.3-0.3c-0.2,0-0.3,0.1-0.3,0.3C17.6,8.3,17.8,8.5,17.9,8.5z" fill="#687D77" style="fill: rgb(104, 125, 119);"></path>
        <path d="M18.6,14.1c0.2,0,0.3-0.1,0.3-0.3s-0.2-0.3-0.3-0.3c-0.2,0-0.3,0.2-0.3,0.3S18.4,14.1,18.6,14.1z" fill="#687D77" style="fill: rgb(104, 125, 119);"></path>
        <circle cx="23.2" cy="8.3" r="0.3"></circle>
    </g>
</svg>